<svg width="910" height="339" viewBox="0 0 910 339" fill="none" xmlns="http://www.w3.org/2000/svg">
<path d="M285.576 238.556H245.177V332.49H231.711V238.556H0V220.885L156.022 6.9753H245.177V225.07H285.576V238.556ZM91.4771 225.07H231.711V33.4815L91.4771 225.07Z" fill="#2F4258"/>
<path d="M454.617 0C475.668 0 497.492 4.96022 520.091 14.8807C542.999 24.8011 562.501 41.6968 578.599 65.5679C595.006 89.439 603.209 120.905 603.209 159.967V179.033C603.209 217.785 595.006 249.251 578.599 273.432C562.501 297.303 542.999 314.199 520.091 324.119C497.183 334.04 475.358 339 454.617 339C433.876 339 412.052 334.04 389.144 324.119C366.236 314.199 346.578 297.303 330.171 273.432C314.074 249.251 306.025 217.785 306.025 179.033V159.967C306.025 121.215 314.074 89.904 330.171 66.0329C346.578 41.8519 366.236 24.8011 389.144 14.8807C412.052 4.96022 433.876 0 454.617 0ZM454.617 258.086C476.287 258.086 497.802 254.366 519.162 246.926C540.522 239.176 558.013 228.48 571.634 214.839C585.564 201.199 592.529 186.008 592.529 169.267C592.529 152.527 585.564 137.491 571.634 124.16C558.013 110.52 540.522 99.9794 519.162 92.5391C497.802 84.7887 476.287 80.9136 454.617 80.9136C432.948 80.9136 411.433 84.7887 390.073 92.5391C368.712 99.9794 351.067 110.52 337.137 124.16C323.516 137.491 316.705 152.527 316.705 169.267C316.705 186.008 323.516 201.199 337.137 214.839C351.067 228.17 368.712 238.711 390.073 246.461C411.433 254.211 432.948 258.086 454.617 258.086Z" fill="#2F4258"/>
<path d="M910 238.556H869.602V332.49H856.135V238.556H624.424V220.885L780.446 6.9753H869.602V225.07H910V238.556ZM715.901 225.07H856.135V33.4815L715.901 225.07Z" fill="#2F4258"/>
</svg>
