<svg viewBox="0 0 125 60" fill="none" xmlns="http://www.w3.org/2000/svg">
<path d="M122.443 16.2005L121.653 16.141C121.52 16.1305 121.391 16.0935 121.272 16.0321C121.153 15.9707 121.048 15.8861 120.962 15.7832C120.876 15.6803 120.811 15.5612 120.771 15.4328C120.731 15.3044 120.716 15.1693 120.728 15.0352L120.976 12.2172C121.236 9.96228 121.214 7.68333 120.911 5.43385C120.613 3.81282 119.531 2.50093 117.665 1.49819C115.799 0.495443 112.695 -0.00394 108.351 2.34063e-05H92.0029C91.8753 1.15314 91.993 2.32045 92.3481 3.42402C92.7031 4.52758 93.2874 5.54201 94.0619 6.39955C94.8364 7.25709 95.7833 7.93802 96.8393 8.39687C97.8953 8.85571 99.0362 9.08192 100.186 9.06038H112.021C114.378 9.06038 116.21 9.44087 117.512 10.2018C118.814 10.9628 119.415 11.9854 119.279 13.1744C119.241 13.645 119.101 14.1015 118.87 14.5121C118.639 14.9228 118.322 15.2778 117.942 15.5525C117.119 16.1823 116.18 16.6392 115.179 16.896H115.149C113.883 17.2288 112.564 17.3095 111.267 17.1339L85.0513 13.5668L84.6212 18.4299L84.203 23.186L111.055 19.7081C112.333 19.5313 113.633 19.6142 114.878 19.9518H114.908C115.841 20.202 116.705 20.6635 117.435 21.3014C117.771 21.5905 118.031 21.9589 118.191 22.3738C118.351 22.7888 118.407 23.2373 118.354 23.6794C118.244 24.9239 117.473 25.9267 116.039 26.6876C114.256 27.5169 112.304 27.9061 110.342 27.8232H98.5068C96.0607 27.8682 93.7156 28.8152 91.914 30.4854C90.1123 32.1557 88.9788 34.4337 88.7274 36.8895H105.099C109.443 36.8895 112.634 36.3881 114.672 35.3854C116.711 34.3826 118.024 33.0707 118.613 31.4497C119.038 30.2607 119.68 26.8838 119.68 26.8838L120.08 22.3655C120.106 22.0546 120.208 21.755 120.376 21.4935C120.545 21.232 120.775 21.0169 121.047 20.8674L122.661 19.9637C123.15 19.6855 123.702 19.5381 124.263 19.5357H124.958C124.958 19.5357 125.53 16.9198 122.443 16.2005Z" fill="#FBB03B"/>
<path d="M17.6265 37.972H16.8606L17.4497 30.9924H1.35497L0.765848 37.972H0L1.61418 19.3994H2.37415L1.78503 26.373H17.8798L18.4689 19.3994H19.2348L17.6265 37.972Z" fill="#2F4258"/>
<path d="M36.7022 20.32C38.096 21.1525 39.2229 22.3722 39.9483 23.8336C40.694 25.3308 41.0006 27.0118 40.8319 28.6788C40.6847 30.4255 40.0899 32.1034 39.1058 33.5479C38.1194 35.014 36.7979 36.2191 35.253 37.0615C33.6918 37.926 31.9378 38.3742 30.1571 38.3634H29.1556C27.4321 38.3946 25.7337 37.944 24.2482 37.0615C22.8517 36.2325 21.7239 35.0118 21.0022 33.5479C20.2664 32.0391 19.9663 30.3517 20.1362 28.6788C20.2792 26.9369 20.8701 25.2627 21.8505 23.8217C22.8332 22.3554 24.1558 21.1534 25.7033 20.32C27.2767 19.454 29.0424 19.006 30.8346 19.018H31.8361C33.5464 18.9878 35.2314 19.4386 36.7022 20.32ZM35.3001 33.0426C36.5512 32.6745 37.7141 32.0513 38.717 31.2115C39.5075 30.5917 40.0223 29.681 40.1486 28.6788C40.1795 28.2121 40.1061 27.7443 39.9338 27.31C39.7615 26.8758 39.4946 26.4862 39.1529 26.17C38.2784 25.3204 37.2163 24.6928 36.0542 24.3389C34.6297 23.8722 33.1392 23.6433 31.6417 23.6612H30.2219C28.6823 23.6499 27.1502 23.8785 25.6798 24.3389C24.4246 24.7057 23.2575 25.3289 22.2511 26.17C21.8609 26.4728 21.5336 26.8502 21.2879 27.2807C21.0423 27.7112 20.8831 28.1863 20.8195 28.6788C20.7872 29.1487 20.8593 29.62 21.0305 30.0581C21.2018 30.4963 21.4678 30.8903 21.8093 31.2115C22.6888 32.0635 23.7573 32.6912 24.9257 33.0426C26.3544 33.5088 27.8486 33.7377 29.35 33.7203H30.7698C32.3052 33.734 33.8335 33.5073 35.3001 33.0485V33.0426Z" fill="#2F4258"/>
<path d="M58.9356 35.1837C58.7474 35.6367 58.4726 36.0479 58.1269 36.3937C57.7812 36.7395 57.3713 37.0132 56.9208 37.1991C55.8761 37.7183 54.2403 37.9759 52.0134 37.972H41.7333L43.3475 19.3994H52.7734C55.0002 19.3994 56.585 19.6233 57.5276 20.0712C57.9424 20.2354 58.3112 20.4994 58.6017 20.8404C58.8923 21.1813 59.0959 21.5887 59.1948 22.0271C59.3681 23.3471 59.3681 24.6844 59.1948 26.0044C59.1232 26.4872 58.9305 26.9436 58.6351 27.3302C58.2754 27.8356 57.7979 28.244 57.2448 28.5192C57.903 28.7192 58.4954 29.0952 58.9591 29.6072C59.1887 29.8631 59.3603 30.1663 59.462 30.4959C59.5638 30.8254 59.5932 31.1734 59.5483 31.5155C59.4931 32.7589 59.2874 33.9908 58.9356 35.1837ZM54.9296 28.3111C55.7143 28.3082 56.4873 28.1188 57.1859 27.7582C57.5092 27.6203 57.7894 27.3965 57.9969 27.1108C58.2043 26.825 58.3312 26.4879 58.3641 26.1352C58.4034 25.7853 58.3192 25.4325 58.1263 25.139C57.9335 24.8454 57.6443 24.6298 57.3096 24.53C56.467 24.1907 55.5656 24.0249 54.6586 24.0425H43.695L43.3239 28.3111H54.9296ZM57.6218 32.7462C57.9349 32.6166 58.2087 32.406 58.4156 32.1357C58.6224 31.8654 58.755 31.5449 58.8001 31.2064C58.8281 30.9789 58.7997 30.7478 58.7174 30.5341C58.6352 30.3203 58.5016 30.1305 58.3288 29.9817C57.9535 29.6565 57.5106 29.4208 57.0327 29.2921C56.5977 29.1649 56.1482 29.0949 55.6954 29.084H43.2414L42.8762 33.3288H54.6586C55.6784 33.3785 56.6951 33.1786 57.6218 32.7462Z" fill="#2F4258"/>
<path d="M77.7226 20.3199C79.1134 21.1543 80.2379 22.3737 80.9628 23.8335C81.7085 25.3307 82.0151 27.0117 81.8465 28.6788C81.701 30.4248 81.1082 32.1027 80.1262 33.5478C79.1375 35.014 77.8141 36.2191 76.2675 37.0614C74.7066 37.9267 72.9524 38.3749 71.1716 38.3634H70.176C68.4507 38.3944 66.7504 37.9438 65.2627 37.0614C63.8679 36.232 62.7422 35.0113 62.0226 33.5478C61.2868 32.039 60.9867 30.3516 61.1566 28.6788C61.2976 26.9373 61.8865 25.2631 62.865 23.8216C63.8477 22.3553 65.1703 21.1533 66.7179 20.3199C68.2912 19.4539 70.057 19.0059 71.8491 19.018H72.8506C74.5627 18.9885 76.2493 19.4392 77.7226 20.3199ZM76.3146 33.0425C77.5657 32.6744 78.7287 32.0512 79.7315 31.2114C80.1248 30.9063 80.454 30.5253 80.6998 30.0904C80.9456 29.6556 81.1031 29.1757 81.1631 28.6788C81.1935 28.2126 81.1204 27.7455 80.9492 27.3115C80.778 26.8774 80.5129 26.4874 80.1734 26.1699C79.2971 25.3196 78.2329 24.6919 77.0687 24.3388C75.6443 23.8716 74.1538 23.6427 72.6562 23.6611H71.2364C69.6988 23.6503 68.1687 23.8789 66.7002 24.3388C65.4427 24.7044 64.2735 25.3277 63.2656 26.1699C62.8762 26.473 62.5499 26.8506 62.3053 27.2811C62.0606 27.7116 61.9025 28.1866 61.84 28.6788C61.8046 29.1489 61.8753 29.6211 62.0468 30.0597C62.2182 30.4984 62.4858 30.8921 62.8297 31.2114C63.7066 32.0639 64.7732 32.6918 65.9402 33.0425C67.369 33.5083 68.8631 33.7372 70.3645 33.7202H71.7843C73.3197 33.7339 74.848 33.5073 76.3146 33.0484V33.0425Z" fill="#2F4258"/>
<path d="M4.05317 45.4687C5.02761 43.9965 6.34695 42.7897 7.89423 41.9552C9.47756 41.0875 11.2532 40.6395 13.0549 40.6532H14.0564C15.5275 40.6335 16.9831 40.957 18.3099 41.5985C19.5533 42.1947 20.6318 43.0911 21.4499 44.2084C22.2669 45.3351 22.7952 46.6484 22.9875 48.0311L21.7562 48.2689C20.9504 47.2665 19.8741 46.521 18.6574 46.1227C17.1231 45.5514 15.4973 45.2713 13.862 45.2963H12.4422C10.9084 45.2842 9.382 45.5128 7.9178 45.9741C6.66246 46.3449 5.49425 46.9677 4.48322 47.8052C4.08844 48.1098 3.75756 48.4906 3.50979 48.9254C3.26202 49.3601 3.1023 49.8402 3.03989 50.3378C3.0104 50.8055 3.08564 51.2738 3.26003 51.7082C3.43443 52.1425 3.7035 52.5316 4.04728 52.8466C4.92787 53.6942 5.99329 54.3214 7.15783 54.6777C8.58232 55.1444 10.0727 55.3734 11.5703 55.3555H12.9901C14.6708 55.3719 16.3415 55.0923 17.9269 54.5291C19.2409 54.1126 20.4328 53.3755 21.3969 52.3829L22.5751 52.6207C22.1111 54.0238 21.365 55.3151 20.3836 56.4137C19.3888 57.5319 18.1726 58.4272 16.8135 59.0414C15.4169 59.6814 13.8994 60.0079 12.3656 59.9986H11.37C9.64054 60.0334 7.93548 59.5826 6.445 58.6966C5.05347 57.8668 3.93163 56.6459 3.21662 55.1831C2.4774 53.6838 2.17505 52.0036 2.34471 50.3378C2.49321 48.5942 3.08136 46.9181 4.05317 45.4687Z" fill="#2F4258"/>
<path d="M39.742 54.9568L39.3355 59.5999H23.6944L25.3027 41.0273H40.9497L40.5432 45.6705H25.609L25.2379 49.9391H38.0159L37.9511 50.7119H25.1731L24.8078 54.9568H39.742Z" fill="#2F4258"/>
<path d="M42.3519 59.9981C42.0931 59.9999 41.8367 59.9481 41.5985 59.8458C41.3604 59.7435 41.1456 59.593 40.9674 59.4036C40.7843 59.2247 40.6443 59.0056 40.5585 58.7633C40.4727 58.521 40.4433 58.2621 40.4726 58.0065C40.5146 57.4832 40.7603 56.9979 41.1559 56.657C41.5419 56.2921 42.0528 56.0919 42.5816 56.0981C42.8276 56.0897 43.0721 56.1391 43.296 56.2422C43.5199 56.3454 43.717 56.4996 43.8718 56.6926C44.0283 56.8829 44.1451 57.1032 44.2149 57.3403C44.2848 57.5773 44.3063 57.8262 44.2783 58.0719C44.2636 58.2555 44.2219 58.4358 44.1546 58.607C44.493 58.3628 44.7613 58.0325 44.9322 57.6498C45.2029 57.0777 45.418 56.4804 45.5743 55.8663L49.8867 41.0332H63.2715L61.6632 59.582H60.915L62.1227 45.6763H49.3153L46.0987 56.7164C45.4801 58.9102 44.2253 59.9981 42.3519 59.9981Z" fill="#2F4258"/>
<path d="M80.7683 41.9547C82.1591 42.7891 83.2836 44.0085 84.0085 45.4683C84.7543 46.9655 85.0608 48.6465 84.8922 50.3135C84.745 52.0602 84.1501 53.7381 83.166 55.1826C82.1796 56.6487 80.8582 57.8538 79.3132 58.6961C77.7524 59.5614 75.9982 60.0096 74.2173 59.9981H73.2217C71.4963 60.0297 69.7959 59.5791 68.3084 58.6961C66.9136 57.8668 65.7879 56.6461 65.0683 55.1826C64.3304 53.6745 64.0302 51.9865 64.2023 50.3135C64.3433 48.5721 64.9322 46.8978 65.9107 45.4564C66.8934 43.9901 68.216 42.7881 69.7636 41.9547C71.3369 41.0887 73.1027 40.6407 74.8948 40.6527H75.8963C77.6084 40.6232 79.2951 41.074 80.7683 41.9547ZM79.3603 54.6773C80.6114 54.3092 81.7744 53.6859 82.7772 52.8462C83.5658 52.2247 84.0801 51.3148 84.2088 50.3135C84.2392 49.8474 84.1662 49.3803 83.9949 48.9462C83.8237 48.5122 83.5586 48.1222 83.2191 47.8047C82.3416 46.956 81.2778 46.3285 80.1144 45.9736C78.6904 45.5043 77.1999 45.2734 75.7019 45.2899H74.2821C72.7426 45.2795 71.2107 45.5081 69.74 45.9677C68.4848 46.3344 67.3178 46.9577 66.3113 47.7988C65.922 48.1018 65.5956 48.4794 65.351 48.9099C65.1064 49.3404 64.9482 49.8154 64.8857 50.3076C64.8516 50.7776 64.923 51.2494 65.0943 51.6878C65.2656 52.1262 65.5326 52.5201 65.8754 52.8402C66.7523 53.6927 67.819 54.3206 68.9859 54.6713C70.4147 55.1371 71.9089 55.366 73.4102 55.3491H74.83C76.3654 55.3627 77.8937 55.1361 79.3603 54.6773Z" fill="#2F4258"/>
<path d="M102.996 56.8116C102.808 57.2647 102.533 57.6758 102.187 58.0216C101.841 58.3674 101.432 58.6411 100.981 58.827C99.9403 59.3462 98.3045 59.6039 96.0737 59.5999H85.7936L87.4078 41.0273H96.8337C99.0606 41.0273 100.645 41.2513 101.588 41.6991C102.002 41.8632 102.37 42.1265 102.66 42.4663C102.951 42.806 103.155 43.212 103.255 43.6491C103.432 44.9709 103.432 46.3106 103.255 47.6324C103.186 48.116 102.993 48.5731 102.695 48.9581C102.336 49.4636 101.858 49.8719 101.305 50.1472C101.965 50.347 102.559 50.7229 103.025 51.2351C103.253 51.4921 103.424 51.7955 103.525 52.1247C103.627 52.454 103.657 52.8014 103.614 53.1435C103.557 54.3871 103.35 55.619 102.996 56.8116ZM98.9899 49.9391C99.7746 49.9362 100.548 49.7468 101.246 49.3862C101.569 49.2471 101.848 49.0231 102.056 48.7375C102.263 48.452 102.39 48.1155 102.424 47.7632C102.462 47.4126 102.377 47.0598 102.183 46.7664C101.989 46.473 101.699 46.2577 101.364 46.158C100.522 45.8175 99.6202 45.6517 98.713 45.6705H87.7495L87.3783 49.9391H98.9899ZM101.682 54.3741C101.995 54.2445 102.269 54.034 102.476 53.7637C102.683 53.4934 102.815 53.1728 102.86 52.8344C102.89 52.6067 102.862 52.3754 102.779 52.1614C102.697 51.9475 102.563 51.7578 102.389 51.6097C102.014 51.2845 101.571 51.0488 101.093 50.92C100.66 50.7928 100.212 50.7229 99.7616 50.7119H87.3253L86.9542 54.9568H98.7366C99.7505 55.0036 100.761 54.8037 101.682 54.3741Z" fill="#2F4258"/>
</svg>
