<svg width="119" height="25" viewBox="0 0 119 25" fill="none" xmlns="http://www.w3.org/2000/svg">
<path d="M7.18111 3.52734C8.1503 3.52734 8.94328 2.73369 8.94328 1.76367C8.94328 0.793651 8.1503 0 7.18111 0C6.21192 0 5.41895 0.793651 5.41895 1.76367C5.44097 2.73369 6.21192 3.52734 7.18111 3.52734Z" fill="#9BA5B0"/>
<path d="M26.1685 20.2601C25.4636 19.7972 24.5165 19.9956 24.0539 20.7011C23.5693 21.4286 22.7763 21.8695 21.9173 21.8695H20.4414C19.0317 21.8695 17.9083 20.7231 17.9083 19.3342V14.9251C17.9083 13.5141 19.0537 12.3898 20.4414 12.3898H21.9173C22.7763 12.3898 23.5693 12.8307 24.0539 13.5582C24.5165 14.2637 25.4636 14.4621 26.1685 13.9991C26.8734 13.5362 27.0716 12.5882 26.609 11.8827C25.5738 10.2954 23.8336 9.34745 21.9393 9.34745H20.4635C17.3797 9.34745 14.8906 11.8607 14.8906 14.9251V19.3342C14.8906 22.4206 17.4017 24.9118 20.4635 24.9118H21.9393C23.8336 24.9118 25.5738 23.9639 26.609 22.3766C27.0716 21.6711 26.8734 20.7231 26.1685 20.2601Z" fill="#9BA5B0"/>
<path d="M7.18083 8.04674C9.91218 8.04674 12.4233 6.79012 14.0533 4.60758C14.5599 3.92416 14.4277 2.97619 13.7449 2.46914C13.0621 1.96208 12.1149 2.09436 11.6083 2.77778C10.573 4.18871 8.94299 5.00441 7.18083 5.00441C5.41866 5.00441 3.81068 4.18871 2.75338 2.77778C2.24676 2.09436 1.2996 1.96208 0.616758 2.46914C0.198243 2.77778 0 3.26279 0 3.7478C0 3.76984 0 3.79189 0 3.81393V23.4788C0 24.3166 0.682839 25 1.51987 25H12.8198C13.6568 25 14.3396 24.3166 14.3396 23.4788C14.3396 22.6411 13.6568 21.9577 12.8198 21.9577H3.06176V15.4541H9.62583C10.4629 15.4541 11.1457 14.7707 11.1457 13.933C11.1457 13.0952 10.4629 12.4118 9.62583 12.4118H3.06176V6.98854C4.29528 7.67196 5.70501 8.04674 7.18083 8.04674Z" fill="#9BA5B0"/>
<path d="M48.173 13.1614H47.2919C46.2566 13.1614 45.3094 13.4259 44.4504 13.8889V10.7804C44.4504 9.94268 43.7675 9.25926 42.9305 9.25926C42.0935 9.25926 41.4106 9.94268 41.4106 10.7804V19.0476V23.1261V23.4127C41.4106 24.2504 42.0935 24.9339 42.9305 24.9339C42.9746 24.9339 43.0186 24.9339 43.0627 24.9339C43.1067 24.9339 43.1508 24.9339 43.1948 24.9339H48.1509C51.3889 24.9339 54.0322 22.2884 54.0322 19.0476C54.0322 15.8069 51.4109 13.1614 48.173 13.1614ZM48.173 21.8695H44.4504V19.0256C44.4504 17.4603 45.728 16.1817 47.2919 16.1817H48.173C49.7369 16.1817 51.0144 17.4603 51.0144 19.0256C51.0144 20.5908 49.7369 21.8695 48.173 21.8695Z" fill="#9BA5B0"/>
<path d="M38.7457 9.32539H29.1419C28.3049 9.32539 27.6221 10.0088 27.6221 10.8466C27.6221 11.6843 28.3049 12.3677 29.1419 12.3677H32.424V23.3906C32.424 24.2284 33.1068 24.9118 33.9438 24.9118C34.7809 24.9118 35.4637 24.2284 35.4637 23.3906V12.3677H38.7457C39.5828 12.3677 40.2656 11.6843 40.2656 10.8466C40.2656 10.0088 39.5828 9.32539 38.7457 9.32539Z" fill="#9BA5B0"/>
<path d="M62.7109 21.4506C61.7417 21.4506 60.9487 22.2443 60.9487 23.2143C60.9487 24.1843 61.7417 24.978 62.7109 24.978C63.6801 24.978 64.4731 24.1843 64.4731 23.2143C64.4731 22.2443 63.6801 21.4506 62.7109 21.4506Z" fill="#9BA5B0"/>
<path d="M75.5091 3.54939C75.5091 3.52734 75.5091 3.50529 75.5091 3.48325C75.5091 3.4612 75.5091 3.43916 75.487 3.41711C75.487 3.39506 75.487 3.37302 75.465 3.32893C75.465 3.30688 75.465 3.28483 75.443 3.26279C75.443 3.24074 75.421 3.2187 75.421 3.17461C75.421 3.15256 75.3989 3.13051 75.3989 3.10847C75.3989 3.08642 75.3769 3.06438 75.3769 3.04233C75.3769 3.02028 75.3549 2.99824 75.3549 2.97619C75.3549 2.95415 75.3328 2.9321 75.3328 2.91006C75.3108 2.88801 75.3108 2.86596 75.2888 2.84392C75.2668 2.82187 75.2668 2.79983 75.2447 2.79983C75.2227 2.77778 75.2007 2.75573 75.2007 2.73369C75.1787 2.71164 75.1787 2.6896 75.1566 2.6896C75.1346 2.66755 75.1126 2.64551 75.1126 2.62346C75.0905 2.60141 75.0905 2.57937 75.0685 2.57937C75.0465 2.55732 75.0245 2.55732 75.0245 2.53528C75.0024 2.51323 74.9804 2.49118 74.9584 2.49118L74.9364 2.46914L74.9143 2.44709C74.8923 2.42505 74.8703 2.403 74.8482 2.403C74.8262 2.38096 74.8042 2.38096 74.7822 2.35891C74.7601 2.33686 74.7381 2.33686 74.7161 2.31482C74.6941 2.31482 74.672 2.29277 74.65 2.29277C74.628 2.29277 74.6059 2.27073 74.5839 2.27073C74.5619 2.27073 74.5399 2.24868 74.5178 2.24868C74.4958 2.24868 74.4738 2.22663 74.4518 2.22663C74.4297 2.22663 74.4077 2.20459 74.3857 2.20459C74.3636 2.20459 74.3416 2.20459 74.3196 2.18254C74.2976 2.18254 74.2755 2.18254 74.2315 2.1605C74.2095 2.1605 74.1874 2.1605 74.1654 2.1605C74.1434 2.1605 74.0993 2.1605 74.0773 2.1605C74.0553 2.1605 74.0553 2.1605 74.0332 2.1605H74.0112C73.9892 2.1605 73.9672 2.1605 73.9231 2.1605C73.9011 2.1605 73.8791 2.1605 73.857 2.1605C73.835 2.1605 73.813 2.1605 73.7909 2.1605C73.7689 2.1605 73.7469 2.1605 73.7028 2.18254C73.6808 2.18254 73.6588 2.18254 73.6368 2.20459C73.6147 2.20459 73.5707 2.22663 73.5486 2.22663C73.5266 2.22663 73.5046 2.24868 73.4826 2.24868C73.4605 2.24868 73.4385 2.27073 73.4165 2.27073C73.3945 2.27073 73.3724 2.29277 73.3504 2.29277C73.3284 2.31482 73.3063 2.31482 73.2843 2.33686C73.2623 2.35891 73.2403 2.35891 73.2182 2.38095C73.1962 2.403 73.1742 2.403 73.1522 2.42505C73.1301 2.44709 73.1081 2.44709 73.0861 2.46914C73.0641 2.49118 73.042 2.49118 73.042 2.51323C73.02 2.53528 72.998 2.55732 72.9759 2.55732C72.9539 2.57937 72.9319 2.60141 72.9319 2.60141C72.9099 2.62346 72.9099 2.64551 72.8878 2.64551C72.8658 2.66755 72.8438 2.6896 72.8438 2.71164L72.8218 2.73369L64.2092 14.0432V3.65961C64.2092 2.82187 63.5263 2.13845 62.6893 2.13845C61.8523 2.13845 61.1694 2.82187 61.1694 3.65961V18.5626V18.5847C61.1694 18.6067 61.1694 18.6508 61.1694 18.6728C61.1694 18.6949 61.1694 18.7169 61.1694 18.739C61.1694 18.761 61.1694 18.7831 61.1915 18.8051C61.1915 18.8272 61.1915 18.8492 61.2135 18.8933C61.2135 18.9153 61.2135 18.9374 61.2355 18.9594C61.2355 18.9815 61.2575 19.0035 61.2575 19.0476C61.2575 19.0697 61.2796 19.0917 61.2796 19.1138C61.2796 19.1358 61.3016 19.1579 61.3016 19.1799C61.3016 19.2019 61.3236 19.224 61.3236 19.246C61.3236 19.2681 61.3457 19.2901 61.3457 19.3122C61.3677 19.3342 61.3677 19.3563 61.3897 19.3783C61.4117 19.4004 61.4117 19.4224 61.4338 19.4224C61.4558 19.4444 61.4778 19.4665 61.4778 19.4885C61.4998 19.5106 61.4998 19.5326 61.5219 19.5326C61.5439 19.5547 61.5659 19.5767 61.5659 19.5988C61.588 19.6208 61.5879 19.6429 61.61 19.6429C61.632 19.6649 61.654 19.6649 61.654 19.687C61.6761 19.709 61.6981 19.731 61.7201 19.731L61.7421 19.7531C61.7642 19.7531 61.7642 19.7751 61.7862 19.7751C61.8082 19.7972 61.8082 19.7972 61.8302 19.8192C61.8523 19.8413 61.8743 19.8413 61.8963 19.8633C61.9184 19.8633 61.9184 19.8854 61.9404 19.8854C61.9844 19.9074 62.0285 19.9295 62.0505 19.9515C62.0946 19.9735 62.1386 19.9735 62.1827 19.9956C62.2047 19.9956 62.2047 19.9956 62.2267 20.0176C62.2488 20.0176 62.2928 20.0397 62.3148 20.0397C62.3369 20.0397 62.3369 20.0397 62.3589 20.0397C62.3809 20.0397 62.425 20.0617 62.469 20.0617C62.4911 20.0617 62.4911 20.0617 62.5131 20.0617C62.5571 20.0617 62.6012 20.0617 62.6453 20.0617C62.7113 20.0617 62.7554 20.0617 62.7994 20.0617C62.8215 20.0617 62.8215 20.0617 62.8435 20.0617C62.8875 20.0617 62.9316 20.0397 62.9757 20.0397C62.9977 20.0397 62.9977 20.0397 63.0197 20.0176C63.0638 20.0176 63.0858 19.9956 63.1298 19.9956C63.1519 19.9956 63.1739 19.9735 63.1739 19.9735C63.218 19.9515 63.24 19.9515 63.284 19.9295C63.3061 19.9295 63.3281 19.9074 63.3281 19.9074C63.3501 19.8854 63.3942 19.8854 63.4162 19.8633C63.4382 19.8633 63.4602 19.8413 63.4602 19.8413C63.4823 19.8192 63.5263 19.7972 63.5484 19.7751C63.5704 19.7751 63.5704 19.7531 63.5924 19.7531C63.6365 19.709 63.6805 19.687 63.7025 19.6429C63.7246 19.6208 63.7246 19.6208 63.7466 19.5988C63.7686 19.5767 63.7907 19.5326 63.8347 19.5106C63.8347 19.5106 63.8347 19.4885 63.8567 19.4885L72.4253 8.17901V23.4347C72.4253 24.2725 73.1081 24.9559 73.9451 24.9559C74.7822 24.9559 75.465 24.2725 75.465 23.4347V3.65961V3.63757C75.5091 3.59348 75.5091 3.57143 75.5091 3.54939Z" fill="#9BA5B0"/>
<path d="M98.9895 9.30336C98.8794 9.30336 98.7693 9.28131 98.6591 9.28131H98.6371H97.1613H97.1393C97.0291 9.28131 96.919 9.28131 96.8089 9.28131C93.8793 9.45768 91.5664 11.8827 91.5664 14.8589V19.2681C91.5664 22.3545 94.0775 24.8457 97.1393 24.8457H98.6151C100.509 24.8457 102.25 23.8977 103.285 22.3104C103.747 21.6049 103.549 20.657 102.844 20.194C102.139 19.731 101.192 19.9295 100.73 20.6349C100.245 21.3624 99.4521 21.8034 98.593 21.8034H97.1172C95.7075 21.8034 94.5841 20.657 94.5841 19.2681V18.276H100.84C102.69 18.276 104.188 16.7769 104.188 14.925V14.8589C104.232 11.9048 101.919 9.47972 98.9895 9.30336ZM101.192 14.925C101.192 15.1014 101.06 15.2337 100.884 15.2337H94.6282V14.8589C94.6282 14.7487 94.6282 14.6164 94.6502 14.5062C94.6722 14.4621 94.6722 14.3959 94.6943 14.3519C94.7603 14.0432 94.8705 13.7566 95.0467 13.4921C95.5313 12.7646 96.3243 12.3236 97.1833 12.3236H98.6591C99.5182 12.3236 100.311 12.7646 100.796 13.4921C100.972 13.7566 101.082 14.0432 101.148 14.3519C101.17 14.3959 101.17 14.4621 101.192 14.5062C101.214 14.6164 101.214 14.7487 101.214 14.8589V14.925H101.192Z" fill="#9BA5B0"/>
<path d="M84.2318 2.13845H82.756C80.8616 2.13845 79.1215 3.08642 78.0862 4.67372C77.6236 5.37919 77.8219 6.32716 78.5268 6.79013C79.2316 7.25309 80.1788 7.05468 80.6414 6.34921C81.1259 5.6217 81.9189 5.18078 82.778 5.18078H84.2538C85.6635 5.18078 86.7869 6.32716 86.7869 7.71605V9.89859C86.016 9.50177 85.1349 9.28131 84.2318 9.28131H82.756C79.6722 9.28131 77.1831 11.7945 77.1831 14.8589V19.2019V19.2681C77.1831 22.2222 79.4959 24.6693 82.4255 24.8457C82.5357 24.8457 82.6458 24.8457 82.756 24.8457H82.778H84.2538H84.2758C84.386 24.8457 84.4961 24.8457 84.6062 24.8457C87.5358 24.6693 89.8487 22.2443 89.8487 19.2681V7.71605C89.8266 4.62963 87.3156 2.13845 84.2318 2.13845ZM80.2008 14.881C80.2008 13.47 81.3462 12.3457 82.7339 12.3457H84.2097C85.0688 12.3457 85.8618 12.7866 86.3464 13.5141C86.5226 13.7787 86.6327 14.0653 86.6988 14.3739C86.7208 14.4621 86.7429 14.5282 86.7649 14.5944V19.2901C86.7649 19.4004 86.7649 19.5326 86.7429 19.6429C86.7208 19.687 86.7208 19.7531 86.6988 19.7972C86.6327 20.1058 86.5226 20.3924 86.3464 20.657C86.3464 20.679 86.3243 20.679 86.3023 20.7011C86.2803 20.7231 86.2583 20.7672 86.2362 20.7892C86.2362 20.8113 86.2142 20.8113 86.2142 20.8333C86.1922 20.8554 86.1701 20.8995 86.1481 20.9215C86.1481 20.9215 86.1481 20.9215 86.1261 20.9436C86.1041 20.9877 86.06 21.0097 86.038 21.0538C85.9719 21.1199 85.8838 21.1861 85.8177 21.2522C85.8177 21.2522 85.7957 21.2522 85.7957 21.2743C85.3552 21.627 84.8045 21.8254 84.2097 21.8254H82.7339C81.8749 21.8254 81.0819 21.3845 80.6193 20.657C80.4431 20.3924 80.333 20.1058 80.2669 19.7972C80.2449 19.7531 80.2449 19.687 80.2228 19.6429C80.2008 19.5326 80.2008 19.4004 80.2008 19.2901V19.224V14.881Z" fill="#9BA5B0"/>
<path d="M116.766 9.28131C116.722 9.28131 116.678 9.28131 116.634 9.28131C116.59 9.28131 116.545 9.28131 116.501 9.28131H111.523C108.285 9.28131 105.642 11.9268 105.642 15.1676C105.642 16.9974 106.479 18.6288 107.801 19.709L105.906 22.597C105.444 23.3025 105.642 24.2504 106.347 24.7134C106.611 24.8898 106.898 24.9559 107.184 24.9559C107.669 24.9559 108.153 24.7134 108.462 24.2725L110.642 20.9656C110.951 21.0097 111.237 21.0318 111.545 21.0318H112.426C113.462 21.0318 114.409 20.7672 115.268 20.3042V23.4127C115.268 24.2504 115.951 24.9339 116.788 24.9339C117.625 24.9339 118.308 24.2504 118.308 23.4127V15.1455V11.0891V10.8025C118.286 9.96473 117.603 9.28131 116.766 9.28131ZM112.404 18.0115H111.523C109.959 18.0115 108.682 16.7328 108.682 15.1676C108.682 13.6023 109.959 12.3236 111.523 12.3236H115.246V15.1676C115.246 16.7328 113.968 18.0115 112.404 18.0115Z" fill="#9BA5B0"/>
</svg>
