<svg width="200" height="50" viewBox="0 0 200 50" fill="none" xmlns="http://www.w3.org/2000/svg">
<path d="M169.996 17.0544H173.359L173.342 22.4831H174.07L175.985 17.0544H179.624L177.014 24.2313L180 32.1778H176.06L174.12 26.0966H173.325L173.342 32.1778H169.979V17.0544H169.996ZM158.662 17.0544H162.008V22.5082H164.4V17.0544H167.737V32.1778H164.4V26.1134H162.008V32.1778H158.662V17.0544ZM147.01 32.2029H150.489L150.908 29.5847H153.3L153.718 32.2029H157.198L154.27 17.0795H149.954L147.01 32.2029ZM152.112 21.6633L152.748 26.2639H151.46L152.112 21.6633ZM137.675 32.1778H141.748C142.635 32.1778 146.341 31.793 146.357 27.2091C146.357 23.3614 143.488 22.6922 141.631 22.6922H141.021V20.6847H145.554V17.0544H137.683L137.675 32.1778ZM141.012 29.1414V25.7202H141.506C141.924 25.7202 142.986 25.7369 142.986 27.3011C142.986 28.8821 141.916 29.1414 141.506 29.1414H141.012ZM124.4 17.0544H127.311L129.879 20.6261L132.472 17.0544H135.358V32.1778H131.937V22.9599L129.879 25.5947L127.821 22.9599V32.1778H124.4V17.0544ZM117.332 32.3618C121.389 32.3618 122.752 28.4638 122.752 24.5993C122.752 20.7348 121.389 16.8369 117.332 16.8369C113.275 16.8369 111.911 20.7265 111.911 24.5993C111.911 28.4722 113.283 32.3618 117.332 32.3618ZM117.332 28.6897C116.127 28.6897 115.508 27.251 115.508 24.5993C115.508 21.9477 116.119 20.5006 117.332 20.5006C118.545 20.5006 119.147 21.9394 119.147 24.5993C119.147 27.2593 118.545 28.698 117.332 28.6897ZM102.008 32.1778H105.429V27.1924H106.575C109.954 27.1924 111.008 24.0724 111.008 22.0816C111.008 20.141 109.804 17.0544 106.575 17.0544H102.008V32.1778ZM105.429 20.3835H106.24C107.01 20.3835 107.503 20.8687 107.503 22.1234C107.503 23.7461 106.667 23.8632 106.24 23.8632H105.429V20.3835ZM90.7069 17.0544H100.042V32.1778H96.6208V20.7098H94.1281V32.1778H90.7069V17.0544ZM83.6889 22.918C84.241 22.918 85.2531 22.55 85.2531 21.4375C85.2531 20.1242 84.0904 20.0406 83.7475 20.0406C83.3543 20.0406 82.6015 20.1075 81.8654 20.4672L81.8236 17.1799C82.9863 16.8787 83.8228 16.7951 84.8098 16.7951C87.6203 16.7951 88.8667 18.8026 88.8667 20.7683C88.8667 22.6755 87.796 23.8298 86.7504 24.2731V24.4153C87.7625 24.7415 89.1009 25.7369 89.1009 28.0456C89.1009 30.9063 87.1603 32.4873 84.6676 32.4873C83.346 32.4705 82.4677 32.2865 81.4221 31.701L81.4806 28.5558C82.451 28.9824 83.1034 29.0243 83.7558 29.0243C84.86 29.0243 85.2949 28.1878 85.2949 27.5855C85.2949 26.7323 84.7596 26.1635 83.5969 26.1635H82.2084V22.918H83.6889ZM70.2385 32.1778H73.7015L74.1364 29.5596H76.5287L76.947 32.1778H80.41L77.4823 17.0544H73.1745C73.1661 17.0544 70.2385 32.1778 70.2385 32.1778ZM75.3159 21.6215L75.9683 26.2388H74.6634L75.3159 21.6215ZM63.6136 17.0544H70.6316V20.8269H67.0934V32.1778H63.6136V17.0544ZM20.8699 24.7917C20.8699 34.0933 28.2727 41.6717 37.3735 41.6717C46.4575 41.6717 53.8519 34.0933 53.8519 24.7917C53.8519 15.4734 46.4575 7.89502 37.3735 7.89502C28.2643 7.88666 20.8699 15.4651 20.8699 24.7917ZM20 24.7917C20 14.9799 27.7875 7 37.3735 7C46.9343 7 54.7219 14.9716 54.7219 24.7917C54.7219 34.5868 46.9343 42.5583 37.3735 42.5583C27.7875 42.5583 20 34.5868 20 24.7917Z" fill="#9BA5B0"/>
<path d="M32.1873 13.5578C31.585 13.8255 31.0162 14.1601 30.4893 14.5449C34.6214 12.6628 39.6653 12.7799 42.3755 14.0179C43.2287 14.4194 43.7975 14.6703 44.0568 15.1555C41.2463 14.3859 40.0418 14.2437 37.6913 14.3023C34.3454 14.3608 29.8954 15.7159 28.1973 16.7531L27.4445 17.7151C29.8954 16.2345 34.4625 15.2642 36.997 15.1806C39.8243 15.1388 42.0242 15.4064 44.0401 16.1509C43.923 16.6779 43.6637 16.9372 43.2287 17.2048C35.1568 15.7661 30.3889 17.4641 26.0811 20.3416L25.7632 21.2952C30.5729 17.9158 36.4617 16.979 42.1413 17.9911C40.1087 18.7188 37.6745 18.8861 35.6336 19.3629C33.8937 19.7728 32.9652 19.8899 30.6482 20.6845C28.2977 21.4708 26.9092 22.2822 26.0392 23.3194C25.621 23.8046 25.3032 24.3734 25.2279 24.984C25.1944 25.3437 25.2111 25.6783 25.3282 25.9961C25.4203 26.2805 25.6461 26.5649 25.8803 26.8493C25.6043 27.3345 25.3617 27.9618 25.7632 28.6979C25.9389 29.0409 26.3989 29.3838 26.8339 29.7101L26.7084 30.0697C26.6499 30.4963 26.5913 31.0066 26.8674 31.4248C27.3358 32.1944 27.9129 32.7046 28.8247 33.1898C28.9669 33.8171 29.176 34.3274 29.6528 34.7707C30.6649 35.7243 32.915 37.5478 36.9301 37.8322C39.9414 38.0329 42.0911 37.1045 42.9025 36.6946L43.8895 36.1676C42.2082 36.8535 39.3809 37.2634 37.0639 37.0543C33.7013 36.7699 30.6984 34.5198 30.322 33.8673C30.4391 33.951 30.598 34.0095 30.7318 34.0681C34.6716 36.017 39.749 37.071 46.2651 34.3525L46.8004 33.8255C40.8782 35.7075 35.7005 35.649 30.1379 32.6712C30.1965 32.3868 30.322 32.1358 30.5729 31.9434C31.9949 32.5875 33.3667 33.1229 35.0229 33.4574C36.9635 33.8255 39.1802 33.9091 40.9953 33.8255C42.8356 33.7418 46.4742 32.8134 48.1973 31.8765C48.3563 31.7343 48.4315 31.4917 48.5905 31.3328C45.2279 32.5875 41.2295 33.173 38.8205 32.989C36.4617 32.805 34.3705 32.5206 31.6018 31.2241C32.1371 31.0066 32.6892 30.8226 33.2413 30.6553C35.0648 31.2241 36.9217 31.567 39.1133 31.6674C41.2881 31.7678 46.3738 30.9397 49.5775 28.9572C49.6779 28.6728 49.7783 28.3633 49.7783 28.3633C49.7783 28.3633 45.3282 30.7975 40.2843 30.7975C37.9255 30.7975 36.4868 30.4545 35.4161 30.1868C37.7916 29.7435 40.7778 29.3755 44.1405 28.5055C45.8385 28.0622 47.938 27.0417 48.8916 26.1969C49.703 25.4441 50.3387 24.4738 50.1212 23.4784C50.0794 23.2107 49.7281 22.5833 49.2847 22.3659C49.703 21.8221 49.6612 21.3537 49.6026 20.9522C49.5608 20.6427 49.4186 20.2998 49.2513 19.9986C48.9753 19.6306 48.7159 19.3462 48.1806 19.02C48.2643 18.5934 48.2057 18.1584 48.0217 17.7653C47.6034 17.0375 46.859 16.4102 45.5708 15.741C45.5123 15.4733 45.3533 15.1304 45.0773 14.7874C43.4546 13.148 40.8029 12.3533 38.5696 12.3115H38.2015C35.5917 12.3366 33.4922 12.9388 32.1873 13.5578ZM44.8515 17.6147C45.0522 17.3889 45.345 17.0459 45.4203 16.7615C45.9807 17.1296 46.608 17.6733 46.6833 18.2421C46.0978 18.0162 45.4621 17.7736 44.8515 17.6147ZM45.345 20.0823C44.3998 19.8146 43.5633 19.4968 42.4592 19.296C43.1367 19.0283 43.5884 18.7523 43.9815 18.4261C44.8682 18.6687 45.6963 18.9698 46.3738 19.2793C46.2567 19.4549 45.5792 20.099 45.3701 20.099C45.3617 20.0907 45.3533 20.0907 45.345 20.0823ZM47.0681 20.7933C47.3274 20.5925 47.5616 20.3667 47.7791 20.1074C48.3144 20.5758 48.4734 20.8937 48.2141 21.4039C47.8544 21.1362 47.478 20.994 47.0681 20.7933ZM26.7502 25.8205C25.2864 23.7544 30.3638 22.2738 31.3341 21.9727C33.8017 21.2199 36.6959 20.6595 39.3057 20.3332C41.1041 20.1074 42.0576 20.3165 43.7557 20.7766C39.3809 21.9727 35.0648 22.3575 30.9577 23.5955C27.6453 24.5741 26.767 25.8205 26.7502 25.8205ZM27.8377 26.8159C29.3851 25.4775 32.5303 24.7247 33.6762 24.4654C37.3316 23.654 40.736 23.1438 42.1413 22.7841C43.8393 22.3575 45.0271 21.956 45.8552 21.5461C45.897 21.4876 47.2438 22.1567 47.3776 22.3157C46.9259 22.7004 46.2902 23.0267 45.5959 23.2692C43.5215 24.0388 39.7406 24.8502 37.7415 25.1597C35.7256 25.5026 34.0359 25.7619 31.8109 26.3725C30.5227 26.7239 29.6528 27.1254 29.0171 27.552C28.5487 27.2592 28.2726 27.1756 27.8377 26.8159ZM30.7067 28.4386C31.3592 28.1542 32.0702 27.9284 32.7561 27.7527C36.2358 26.8744 39.3057 26.7155 43.5382 25.5444C45.5708 24.9924 47.0597 24.4068 47.9882 23.6791C48.1221 23.5536 48.2643 23.4533 48.4065 23.3362C49.6361 25.2851 45.0271 26.7824 41.8736 27.4767C40.2258 27.8113 38.5779 28.1291 36.9301 28.4303C34.8724 28.7732 34.2032 28.9572 32.7728 29.3838C32.0702 29.0827 31.3592 28.7816 30.7067 28.4386ZM27.0012 27.828C27.319 28.0371 27.5533 28.196 27.9297 28.3968C27.7875 28.5223 27.6118 28.6394 27.478 28.7816C27.1685 28.5976 26.8506 28.196 27.0012 27.828ZM28.649 29.6933C28.8498 29.5093 29.1007 29.3336 29.3768 29.1496C29.9707 29.434 30.5813 29.6933 31.1584 29.961C30.7737 30.1032 30.4056 30.2872 30.0543 30.5131C29.5775 30.237 29.1091 29.9694 28.649 29.6933ZM28.1304 30.6804C28.465 30.9062 28.7996 31.0902 29.1425 31.2659C29.0003 31.4666 28.9 31.6256 28.8498 31.8347C28.3479 31.4165 28.1137 31.0735 28.1304 30.6804Z" fill="#9BA5B0"/>
</svg>
