<svg viewBox="0 0 36 36" fill="none" xmlns="http://www.w3.org/2000/svg">
<g clip-path="url(#clip0_288_5814)">
<circle cx="18" cy="18" r="17.5" stroke="#2F4258"/>
<path fill-rule="evenodd" clip-rule="evenodd" d="M20.5526 9.03181C18.6192 9.22795 16.8702 10.4307 15.992 12.1679C15.5458 13.0506 15.3821 13.8186 15.4156 14.871C15.4434 15.7388 15.5785 16.305 15.9377 17.0577L16.1024 17.403L12.5902 20.8391C10.6584 22.7289 9.06001 24.3097 9.03816 24.352C8.9814 24.4617 8.9891 24.7026 9.05364 24.8355C9.08402 24.8981 9.47683 25.3064 9.9265 25.7429C11.0712 26.8539 11.0307 26.8481 11.8867 26.0231L12.4193 25.5099L13.1655 26.2352C14.2294 27.2694 14.1259 27.2745 15.3052 26.1298C15.7549 25.6933 16.1477 25.285 16.1781 25.2224C16.2423 25.0903 16.2494 24.9015 16.1954 24.7628C16.1746 24.7093 15.8348 24.3477 15.4404 23.9593L14.7233 23.2531L16.5671 21.4554L18.4109 19.6578L18.7349 19.8107C19.1311 19.9977 19.6193 20.1537 20.1207 20.2536C20.4202 20.3133 20.633 20.3294 21.1465 20.3312C21.8029 20.3335 22.0714 20.3046 22.6223 20.1721C24.5381 19.7114 26.0885 18.2955 26.7133 16.436C27.1972 14.9961 27.0645 13.4124 26.3462 12.0545C25.246 9.9743 22.9696 8.78664 20.5526 9.03181ZM21.4753 11.8757C22.6789 11.9997 23.645 12.7963 23.9795 13.9406C24.0938 14.3315 24.0938 15.013 23.9795 15.4039C23.6875 16.4027 22.9151 17.1437 21.8992 17.3998C21.5053 17.499 20.8943 17.4987 20.4986 17.3989C19.2086 17.0739 18.321 15.9625 18.321 14.6723C18.321 13.8816 18.6334 13.1811 19.2353 12.6224C19.6711 12.2178 20.2625 11.9466 20.8567 11.8787C20.9963 11.8628 21.1186 11.848 21.1285 11.8458C21.1384 11.8436 21.2945 11.8571 21.4753 11.8757Z" fill="#2F4258"/>
</g>
<defs>
<clipPath id="clip0_288_5814">
<rect width="36" height="36" fill="white"/>
</clipPath>
</defs>
</svg>
