<svg viewBox="0 0 30 30" fill="none" xmlns="http://www.w3.org/2000/svg">
<path fill-rule="evenodd" clip-rule="evenodd" d="M12.9503 2.62844C13.3503 2.43276 13.833 2.46243 14.2025 2.70542L20.2505 6.68269C20.5738 6.89534 20.7664 7.24283 20.7664 7.61364V14.4152L24.4935 16.9162C24.8113 17.1295 25 17.4739 25 17.8409V25.2273V25.5114C25 25.7955 24.9987 25.736 24.9987 26.3636C24.9987 26.9912 25 26.3636 25 27.5H6.25C6.25 26.9318 6.25138 27.2753 6.25138 26.6477C6.25138 26.0201 6.2513 26.3636 6.2513 26.0795V25.2273V12.7273C6.2513 12.3565 6.44388 12.009 6.76724 11.7963L12.2993 8.15835V3.63637C12.2993 3.21264 12.5502 2.82412 12.9503 2.62844ZM8.67049 25.2273H12.2993V10.9326L8.67049 13.3189V25.2273Z" fill="#F5F5F5"/>
</svg>
