<svg width="30" height="30" viewBox="0 0 30 30" fill="none" xmlns="http://www.w3.org/2000/svg">
<path d="M5 7.5H25V9.16667H5V7.5Z" fill="#F5F5F5"/>
<path d="M22.5 8.125C22.5 9.85089 21.1009 11.25 19.375 11.25C17.6491 11.25 16.25 9.85089 16.25 8.125C16.25 6.39911 17.6491 5 19.375 5C21.1009 5 22.5 6.39911 22.5 8.125Z" fill="#F5F5F5"/>
<path d="M5 14.5833H25V16.25H5V14.5833Z" fill="#F5F5F5"/>
<path d="M12.9167 15.2083C12.9167 16.9342 11.5176 18.3333 9.79167 18.3333C8.06578 18.3333 6.66667 16.9342 6.66667 15.2083C6.66667 13.4824 8.06578 12.0833 9.79167 12.0833C11.5176 12.0833 12.9167 13.4824 12.9167 15.2083Z" fill="#F5F5F5"/>
<path d="M5 21.25H25V22.9167H5V21.25Z" fill="#F5F5F5"/>
<path d="M20.8333 21.875C20.8333 23.6009 19.4342 25 17.7083 25C15.9824 25 14.5833 23.6009 14.5833 21.875C14.5833 20.1491 15.9824 18.75 17.7083 18.75C19.4342 18.75 20.8333 20.1491 20.8333 21.875Z" fill="#F5F5F5"/>
</svg>
