<svg width="24" height="24" viewBox="0 0 24 24" fill="none" xmlns="http://www.w3.org/2000/svg">
<circle cx="12" cy="12" r="12" fill="#9BA5B0"/>
<path fill-rule="evenodd" clip-rule="evenodd" d="M16.5714 13.9069C16.5714 13.9069 17.6224 14.8846 17.8824 15.337C17.8875 15.3435 17.8914 15.3507 17.8941 15.3584C18.0001 15.5255 18.0261 15.6566 17.9741 15.7533C17.8863 15.9131 17.5893 15.9933 17.4885 16H15.6308C15.5015 16 15.2324 15.9682 14.9048 15.7551C14.6545 15.5904 14.4056 15.3192 14.1644 15.0541C13.8043 14.6605 13.493 14.3189 13.1777 14.3189C13.1379 14.3188 13.0984 14.325 13.0607 14.3372C12.8222 14.4083 12.5193 14.7284 12.5193 15.5812C12.5193 15.8482 12.2957 16 12.139 16H11.2882C10.9983 16 9.48896 15.9045 8.15061 14.5754C6.51066 12.9481 5.03776 9.68384 5.02346 9.65506C4.93181 9.44385 5.12421 9.32876 5.33221 9.32876H7.20811C7.45966 9.32876 7.54156 9.47201 7.59876 9.60058C7.66506 9.74812 7.91076 10.3383 8.31376 11.0013C8.96636 12.08 9.36741 12.519 9.68786 12.519C9.74807 12.5191 9.80726 12.5044 9.85946 12.4761C10.2781 12.2594 10.2001 10.8513 10.1806 10.5611C10.1806 10.5048 10.1799 9.93239 9.96541 9.65568C9.81201 9.45732 9.55071 9.38018 9.39276 9.35202C9.43501 9.29447 9.52471 9.20631 9.63976 9.15428C9.92641 9.01959 10.4445 9 10.9586 9H11.244C11.8017 9.00735 11.946 9.04102 12.1488 9.08938C12.557 9.18121 12.5648 9.43038 12.529 10.2789C12.5186 10.5213 12.5076 10.7944 12.5076 11.1158C12.5076 11.1844 12.5043 11.2609 12.5043 11.3386C12.492 11.7739 12.4757 12.2643 12.802 12.4657C12.8443 12.4905 12.8932 12.5037 12.9431 12.5037C13.0562 12.5037 13.3948 12.5037 14.3133 11.0191C14.7163 10.3634 15.0283 9.59017 15.0497 9.53201C15.0679 9.49956 15.1225 9.40834 15.1888 9.37161C15.236 9.34798 15.2888 9.33617 15.3422 9.33733H17.549C17.7895 9.33733 17.9526 9.37161 17.9845 9.45732C18.0378 9.59629 17.9741 10.0206 16.9666 11.3037C16.7969 11.5174 16.6481 11.7023 16.5174 11.8639C15.6042 12.9928 15.6042 13.0498 16.5714 13.9069Z" fill="#F5F5F5"/>
</svg>
