<svg width="24" height="24" viewBox="0 0 24 24" fill="none" xmlns="http://www.w3.org/2000/svg">
<circle cx="12" cy="12" r="12" fill="#9BA5B0"/>
<path fill-rule="evenodd" clip-rule="evenodd" d="M14.7494 13.191C14.5997 13.1165 13.8657 12.7575 13.729 12.7075C13.5924 12.658 13.4929 12.6335 13.3929 12.7825C13.2934 12.9305 13.0076 13.2655 12.9206 13.3645C12.8332 13.464 12.7463 13.476 12.5971 13.402C12.4479 13.327 11.9666 13.1705 11.3963 12.6645C10.9527 12.2705 10.6528 11.784 10.5659 11.635C10.479 11.4865 10.5563 11.406 10.6312 11.332C10.6985 11.2655 10.7804 11.1585 10.8553 11.072C10.9301 10.985 10.9547 10.923 11.0045 10.8235C11.0547 10.7245 11.0296 10.638 10.9919 10.5635C10.9547 10.489 10.6563 9.75751 10.5317 9.46001C10.4106 9.17052 10.2875 9.21002 10.1961 9.20502C10.1087 9.20102 10.0092 9.20002 9.90972 9.20002C9.81025 9.20002 9.64847 9.23702 9.51182 9.38601C9.37466 9.53451 8.98932 9.89401 8.98932 10.6255C8.98932 11.3565 9.52388 12.063 9.59874 12.1625C9.67359 12.2615 10.6513 13.7625 12.1489 14.406C12.5057 14.559 12.7835 14.6505 13 14.7185C13.3577 14.832 13.6833 14.816 13.9405 14.7775C14.2269 14.735 14.8238 14.418 14.9484 14.071C15.0725 13.724 15.0725 13.4265 15.0353 13.3645C14.9981 13.3025 14.8991 13.2655 14.7494 13.191ZM12.0254 16.8925H12.0233C11.1338 16.8927 10.2606 16.6547 9.49524 16.2035L9.31437 16.0965L7.43437 16.5875L7.93627 14.7635L7.81821 14.5765C7.3209 13.7887 7.05771 12.8769 7.05907 11.9465C7.06008 9.22151 9.28775 7.00452 12.0274 7.00452C13.3537 7.00452 14.6007 7.51952 15.5382 8.45352C16.0006 8.91181 16.3671 9.4568 16.6165 10.057C16.8659 10.6571 16.9932 11.3006 16.9911 11.95C16.9901 14.675 14.7625 16.8925 12.0254 16.8925ZM16.2516 7.74402C15.698 7.18948 15.0394 6.74979 14.3139 6.45042C13.5883 6.15105 12.8103 5.99796 12.0249 6.00002C8.73208 6.00002 6.05125 8.66752 6.05024 11.946C6.04871 12.9894 6.32374 14.0147 6.84756 14.9185L6 18L9.16717 17.173C10.0433 17.6481 11.0251 17.897 12.0228 17.897H12.0254C15.3181 17.897 17.999 15.2295 18 11.9505C18.0024 11.1691 17.8491 10.3951 17.549 9.67303C17.2489 8.951 16.8079 8.29535 16.2516 7.74402Z" fill="#F5F5F5"/>
</svg>
