<svg width="48" height="49" viewBox="0 0 48 49" fill="none" xmlns="http://www.w3.org/2000/svg">
<path d="M4 13.6V3.8H6.45V8.9C8.88333 6.8 11.5917 5.20833 14.575 4.125C17.5583 3.04167 20.6708 2.5 23.9125 2.5C27.1541 2.5 30.275 3.04222 33.2753 4.12665C36.2755 5.21112 39.0171 6.80223 41.5 8.9V3.8H44V13.6H34.45V11.15H40.45C38.15 9.15 35.5852 7.58333 32.7556 6.45C29.926 5.31667 26.9741 4.75 23.9 4.75C20.8611 4.75 17.943 5.31667 15.1458 6.45C12.3486 7.58333 9.8 9.15 7.5 11.15H13.5V13.6H4ZM21.0817 46.5C20.5272 46.5 20 46.3917 19.5 46.175C19 45.9583 18.5658 45.6675 18.1975 45.3025L7.9 35L10.7 32.1099C11.1667 31.6366 11.6917 31.275 12.275 31.025C12.8583 30.775 13.4667 30.7333 14.1 30.9L18 31.8V15.5C18 14.1 18.4833 12.9167 19.45 11.95C20.4167 10.9833 21.6 10.5 23 10.5C24.4 10.5 25.5833 10.9833 26.55 11.95C27.5167 12.9167 28 14.1 28 15.5V24.5H29.3C29.4667 24.5 29.6218 24.5167 29.7654 24.55C29.909 24.5833 30.0705 24.6333 30.25 24.7L37.6 28C38.4 28.3667 38.9917 28.9554 39.375 29.7662C39.7583 30.577 39.8667 31.4216 39.7 32.3L37.8941 43.1941C37.7313 44.1647 37.2699 44.9583 36.5098 45.575C35.7497 46.1917 34.8797 46.5 33.9 46.5H21.0817ZM20.7 43.5H34.75L36.9 31.05L27.75 26.9H25V15.5C25 14.9 24.8167 14.4167 24.45 14.05C24.0833 13.6833 23.6 13.5 23 13.5C22.4 13.5 21.9167 13.6833 21.55 14.05C21.1833 14.4167 21 14.9 21 15.5V35.45L13.3 33.8L12.15 34.95L20.7 43.5Z" fill="#F5F5F5"/>
</svg>
